<svg width="35" height="35" viewBox="0 0 35 35" fill="none" xmlns="http://www.w3.org/2000/svg">
    <path d="M17.4543 1.25914e-06C14.0027 0.00131394 10.629 1.02859 7.7597 2.95195C4.89042 4.87531 2.65443 7.60837 1.33446 10.8056C0.0144902 14.0028 -0.330196 17.5206 0.343985 20.9142C1.01817 24.3078 2.68094 27.4248 5.12207 29.871C7.5632 32.3173 10.6731 33.9831 14.0585 34.6577C17.4439 35.3322 20.9528 34.9853 24.1415 33.6609C27.3303 32.3364 30.0557 30.0938 31.9732 27.2166C33.8907 24.3395 34.9141 20.9569 34.9141 17.4967C34.9141 15.1984 34.4624 12.9227 33.5849 10.7995C32.7074 8.67623 31.4212 6.74712 29.7999 5.12231C28.1785 3.49751 26.2537 2.20885 24.1354 1.32995C22.0171 0.451051 19.7469 -0.000870613 17.4543 1.25914e-06Z" fill="#CF0A2C"/>
    <path d="M29.6426 25.2687C28.7032 25.7762 27.6676 26.0792 26.6035 26.1582C26.0393 26.1546 25.4895 25.9786 25.0277 25.6537C22.2005 23.7687 23.1671 21.5119 25.0939 18.0072C25.977 16.5735 26.6672 15.0291 27.1464 13.414C27.5503 11.7148 27.9145 9.23897 26.4446 7.36718C25.6217 6.41191 24.5375 5.71957 23.3261 5.3759C21.5424 4.84833 19.6901 4.59104 17.8306 4.61258H17.0956C15.2361 4.59114 13.3838 4.84843 11.6001 5.3759C10.3887 5.71957 9.30445 6.41191 8.48161 7.36718C7.01173 9.23897 7.37589 11.7148 7.7864 13.414C8.25794 15.0286 8.94148 16.5732 9.81907 18.0072C11.7458 21.5052 12.7125 23.7687 9.88528 25.6537C9.42378 25.9794 8.87382 26.1554 8.30946 26.1582C7.25445 26.0752 6.22836 25.7722 5.29688 25.2687L5.4624 25.5608C6.82634 27.6583 8.60741 28.7734 10.5937 28.7734C11.5437 28.7468 12.4775 28.5207 13.3349 28.1096C14.3791 27.625 15.2452 26.8241 15.8111 25.8197C16.3872 24.8813 16.6212 23.7719 16.4732 22.6801C16.1501 21.5133 15.7566 20.3673 15.2947 19.2485C13.9043 15.6376 11.9842 10.7059 13.646 8.29644C14.3082 7.28089 15.586 6.78307 17.4532 6.77643C19.3203 6.76979 20.5717 7.28089 21.2603 8.29644C22.9023 10.7059 21.0021 15.6376 19.6116 19.2418C19.143 20.3693 18.7428 21.5241 18.4132 22.7C18.2631 23.794 18.4972 24.9062 19.0753 25.8462C19.6405 26.8528 20.5067 27.6561 21.5516 28.1428C22.4091 28.5535 23.3428 28.7796 24.2927 28.8066C26.2791 28.8066 28.08 27.6915 29.4836 25.5807L29.6426 25.2687Z" fill="white"/>
</svg>
